<svg xmlns="http://www.w3.org/2000/svg" fill="none" viewBox="0 0 48 48" height="48" width="48">
<path stroke-linejoin="round" stroke-linecap="round" stroke-width="3.00331" stroke="#007E40" d="M42.0072 26.0005V23.9997C42.0072 16.2645 35.7366 9.99388 28.0014 9.99388H26.0005C24.2318 9.99388 22.7331 8.84738 22.203 7.25672C21.9408 6.46639 21.1265 5.99219 20.2961 5.99219H18.2613C16.9568 5.99219 15.9863 7.22869 16.3125 8.49122C16.9868 11.1063 18.6954 13.3033 20.9724 14.6298C21.5827 14.9859 21.9989 15.5862 21.9989 16.2925C21.9989 19.2917 21.9989 27.173 21.9989 27.173C21.9989 28.7356 20.7323 30.0022 19.1697 30.0022C18.4193 30.0022 17.6991 29.7041 17.1689 29.1738L15.6542 27.6592C14.0235 26.0285 11.4985 25.4963 9.22953 26.5388C7.18869 27.4752 5.99219 29.642 5.99219 31.887V38.0055C5.99219 39.6622 7.33673 41.0067 8.99343 41.0067C10.6501 41.0067 11.9947 39.6622 11.9947 38.0055V34.0039L16.2085 38.2176C18.6355 40.6446 21.9248 42.0072 25.3562 42.0072C34.5521 42.0072 42.0072 34.5521 42.0072 25.3562"></path>
</svg>
