<svg xmlns="http://www.w3.org/2000/svg" fill="none" viewBox="0 0 48 48" height="48" width="48">
<g clip-path="url(#clip0_239_2697)">
<mask height="48" width="48" y="0" x="0" maskUnits="userSpaceOnUse" style="mask-type:luminance" id="mask0_239_2697">
<path fill="white" d="M48 0H0V48H48V0Z"></path>
</mask>
<g mask="url(#mask0_239_2697)">
<path fill="#007E40" d="M30.4679 27.1331C33.0849 23.2096 38.0042 21.5227 42.4782 23.0145C43.2641 23.2765 43.6887 24.1261 43.4268 24.9119C43.1647 25.6979 42.3151 26.1225 41.5294 25.8605C38.4659 24.8391 35.1103 25.9069 33.1964 28.4681L32.9647 28.7961L32.4327 29.5961C31.9742 30.2859 31.043 30.4733 30.3532 30.0145C29.7262 29.5975 29.5141 28.7901 29.8255 28.1285L29.9347 27.9349L30.4679 27.1331Z"></path>
<path fill="#007E40" d="M21.1718 3.77938C23.126 2.15161 25.9572 2.20248 27.8488 3.84917L28.1124 4.09526L30.9937 6.97637C32.1492 8.13432 32.3894 9.90539 31.618 11.3198L31.4502 11.5976L29.1585 15.0374C28.191 16.4749 26.361 17.0268 24.7753 16.4008L24.4811 16.2696L23.6154 15.836L21.6026 25.8808C21.4533 26.6253 20.7766 27.1298 20.0392 27.0832L19.8369 27.0566C19.0924 26.9074 18.588 26.2306 18.6345 25.4932L18.6612 25.2909L21.0612 13.323C21.2417 12.4228 22.1709 11.9106 23.0108 12.1961L23.2027 12.2763L25.8219 13.5859C26.0778 13.7136 26.3809 13.6616 26.577 13.4735L26.6657 13.3682L28.953 9.9349C29.0994 9.71499 29.0998 9.43448 28.9668 9.2179L28.8712 9.09656L25.9911 6.21646C25.2042 5.4294 23.9471 5.37216 23.0921 6.0843C16.7459 11.3722 11.9384 18.2608 9.16127 26.031L8.83775 26.9675L7.63961 30.5341C7.27852 31.6226 7.61215 32.8107 8.46425 33.5549L8.68793 33.7316L11.7499 35.9193C17.243 39.844 24.3567 40.701 30.6246 38.1931C31.2833 37.9298 32.0252 38.1652 32.417 38.7346L32.5234 38.9152L34.6874 43.2432C35.058 43.9842 34.7576 44.8852 34.0166 45.2555C33.3375 45.5952 32.5238 45.3712 32.1074 44.7608L32.0042 44.5848L30.4374 41.4519L30.4166 41.461C23.7578 43.6601 16.4364 42.6747 10.5858 38.7613L10.0057 38.3604L6.94668 36.1744C4.96451 34.7652 4.07655 32.2838 4.68534 29.9512L4.79396 29.5842L5.99288 26.0155C8.88665 17.3364 14.1431 9.63608 21.1718 3.77938Z"></path>
<path fill="#007E40" d="M17.3675 25.3517C21.8027 22.3958 27.5801 22.3958 32.0153 25.3517C32.7045 25.8111 32.891 26.7423 32.4316 27.4317C31.9721 28.1211 31.0409 28.3075 30.3516 27.8481C26.9237 25.5638 22.4589 25.5638 19.0313 27.8481C18.3419 28.3075 17.4106 28.1211 16.9512 27.4317C16.4917 26.7423 16.6782 25.8111 17.3675 25.3517Z"></path>
</g>
</g>
<defs>
<clipPath id="clip0_239_2697">
<rect fill="white" height="48" width="48"></rect>
</clipPath>
</defs>
</svg>
