<svg xmlns="http://www.w3.org/2000/svg" fill="none" viewBox="0 0 48 48" height="48" width="48">
<g clip-path="url(#clip0_239_2690)">
<mask height="48" width="48" y="0" x="0" maskUnits="userSpaceOnUse" style="mask-type:luminance" id="mask0_239_2690">
<path fill="white" d="M48 0H0V48H48V0Z"></path>
</mask>
<g mask="url(#mask0_239_2690)">
<path fill="#007E40" d="M22.5 15L22.211 15.0138C20.6898 15.1591 19.5 16.4406 19.5 18V19.5H18C16.3432 19.5 15 20.8432 15 22.5V25.5L15.0138 25.789C15.1591 27.3102 16.4406 28.5 18 28.5H19.5V30C19.5 31.6568 20.8432 33 22.5 33H25.5L25.789 32.9862C27.3102 32.8408 28.5 31.5594 28.5 30V28.5H30C31.6568 28.5 33 27.1568 33 25.5V22.5L32.9862 22.211C32.8408 20.6898 31.5594 19.5 30 19.5H28.5V18C28.5 16.3432 27.1568 15 25.5 15H22.5ZM22.5 18H25.5V21C25.5 21.8284 26.1716 22.5 27 22.5H30V25.5H27C26.1716 25.5 25.5 26.1716 25.5 27V30H22.5V27C22.5 26.1716 21.8284 25.5 21 25.5H18V22.5H21C21.8284 22.5 22.5 21.8284 22.5 21V18Z"></path>
<path fill="#007E40" d="M22.3602 4.75012L9.36026 8.81049C7.06374 9.52774 5.5 11.6544 5.5 14.0604V21.534C5.5 30.8048 11.1298 39.1228 19.6845 42.5882L20.319 42.8344C22.6934 43.7226 25.3088 43.7218 27.6824 42.8322L27.7312 42.814C36.6144 39.4848 42.5 30.9938 42.5 21.5072V14.0605C42.5 11.6545 40.9362 9.52787 38.6398 8.81056L25.6398 4.75012C24.572 4.41663 23.428 4.41663 22.3602 4.75012ZM24.7454 7.61369L37.7454 11.6742C38.7892 12.0002 39.5 12.9668 39.5 14.0605V21.5072C39.5 29.5514 34.6252 36.7712 27.2122 39.7958L26.6296 40.023C25.0882 40.6006 23.4042 40.6536 21.8368 40.182L21.3102 40.0022C13.606 37.1206 8.49997 29.7594 8.49997 21.534V14.0604C8.49997 12.9667 9.21082 12.0001 10.2547 11.674L23.2546 7.61369C23.74 7.46208 24.26 7.46208 24.7454 7.61369Z"></path>
</g>
</g>
<defs>
<clipPath id="clip0_239_2690">
<rect fill="white" height="48" width="48"></rect>
</clipPath>
</defs>
</svg>
