<svg xmlns="http://www.w3.org/2000/svg" fill="none" viewBox="0 0 48 48" height="48" width="48">
<path stroke-linejoin="round" stroke-linecap="round" stroke-width="3.00331" stroke="#007E40" d="M25.2578 7.3069C24.5238 7.9007 23.4747 7.9007 22.7407 7.3069C21.1366 6.02674 18.9896 5.65491 17.0484 6.32103C15.1072 6.98716 13.6409 8.59887 13.1607 10.5943C12.991 11.3706 12.3831 11.9761 11.6061 12.1429C9.32183 12.6065 7.41803 14.1762 6.52747 16.3302C5.63688 18.4841 5.87635 20.94 7.16625 22.8814C7.63102 23.5619 7.63102 24.4578 7.16625 25.1383C5.87635 27.0796 5.63688 29.5355 6.52747 31.6895C7.41803 33.8435 9.32183 35.4131 11.6061 35.8768C12.3831 36.0435 12.991 36.6491 13.1607 37.4254C13.6435 39.419 15.1109 41.0281 17.0517 41.6921C18.9925 42.3561 21.138 41.9829 22.7407 40.7028C23.4747 40.109 24.5238 40.109 25.2578 40.7028C26.8633 41.9829 29.0118 42.3535 30.9534 41.6852C32.895 41.0169 34.3602 39.4025 34.8377 37.4054C35.0076 36.6291 35.6154 36.0236 36.3924 35.8568C38.677 35.3929 40.5808 33.8226 41.4711 31.6681C42.3613 29.5137 42.1211 27.0575 40.8303 25.1163C40.3673 24.4367 40.3673 23.543 40.8303 22.8634C42.1211 20.9222 42.3613 18.466 41.4711 16.3115C40.5808 14.157 38.677 12.5868 36.3924 12.1229C35.6154 11.9561 35.0076 11.3506 34.8377 10.5742C34.355 8.58063 32.8876 6.97154 30.9468 6.3076C29.006 5.64363 26.8605 6.01672 25.2578 7.29686V7.3069Z" clip-rule="evenodd" fill-rule="evenodd"></path>
<path stroke-linejoin="round" stroke-linecap="round" stroke-width="3.00331" stroke="#007E40" d="M24 7.74902V40.2485"></path>
<path stroke-linejoin="round" stroke-linecap="round" stroke-width="3.00331" stroke="#007E40" d="M30 32.0036C30 29.7935 31.7916 28.002 34.0017 28.002"></path>
<path stroke-linejoin="round" stroke-linecap="round" stroke-width="3.00331" stroke="#007E40" d="M17.9978 15.9971C17.9978 18.2071 16.2061 19.9987 13.9961 19.9987"></path>
<path stroke-linejoin="round" stroke-linecap="round" stroke-width="3.00331" stroke="#007E40" d="M17.9978 32.0036C17.9978 29.7935 16.2061 28.002 13.9961 28.002"></path>
<path stroke-linejoin="round" stroke-linecap="round" stroke-width="3.00331" stroke="#007E40" d="M30 15.9971C30 18.2071 31.7916 19.9987 34.0017 19.9987"></path>
</svg>
